solid C-Clamp
facet normal 0.0 -1.0 0.0
  outer loop
    vertex 109.74179630034716 43.892740515740854 39.0
    vertex 59.74179630034717 43.892740515740854 34.0
    vertex 109.74179630034716 43.892740515740854 34.0
  endloop
endfacet
facet normal 0.0 -1.0 0.0
  outer loop
    vertex 59.74179630034717 43.892740515740854 34.0
    vertex 109.74179630034716 43.892740515740854 39.0
    vertex 59.74179630034717 43.892740515740854 39.0
  endloop
endfacet
facet normal 1.0 0.0 0.0
  outer loop
    vertex 109.74179630034715 128.64274051574085 -15.0
    vertex 109.74179630034716 43.892740515740854 3.0
    vertex 109.74179630034716 43.892740515740854 -15.0
  endloop
endfacet
facet normal 1.0 0.0 0.0
  outer loop
    vertex 109.74179630034716 43.892740515740854 3.0
    vertex 109.74179630034715 128.64274051574085 -15.0
    vertex 109.74179630034716 90.89274051574085 3.0
  endloop
endfacet
facet normal 1.0 0.0 0.0
  outer loop
    vertex 109.74179630034716 90.89274051574085 3.0
    vertex 109.74179630034715 128.64274051574085 -15.0
    vertex 109.74179630034716 90.89274051574085 34.0
  endloop
endfacet
facet normal 1.0 0.0 0.0
  outer loop
    vertex 109.74179630034716 90.89274051574085 34.0
    vertex 109.74179630034716 43.892740515740854 39.0
    vertex 109.74179630034716 43.892740515740854 34.0
  endloop
endfacet
facet normal 1.0 0.0 0.0
  outer loop
    vertex 109.74179630034716 43.892740515740854 39.0
    vertex 109.74179630034716 90.89274051574085 34.0
    vertex 109.74179630034715 128.64274051574085 39.0
  endloop
endfacet
facet normal 1.0 0.0 0.0
  outer loop
    vertex 109.74179630034715 128.64274051574085 39.0
    vertex 109.74179630034716 90.89274051574085 34.0
    vertex 109.74179630034715 128.64274051574085 -15.0
  endloop
endfacet
facet normal -1.0 0.0 0.0
  outer loop
    vertex 59.741796300347175 128.64274051574085 39.0
    vertex 59.74179630034717 43.892740515740854 34.0
    vertex 59.74179630034717 43.892740515740854 39.0
  endloop
endfacet
facet normal -1.0 0.0 0.0
  outer loop
    vertex 59.74179630034717 43.892740515740854 34.0
    vertex 59.741796300347175 128.64274051574085 39.0
    vertex 59.74179630034717 90.89274051574085 34.0
  endloop
endfacet
facet normal -1.0 0.0 0.0
  outer loop
    vertex 59.74179630034717 90.89274051574085 34.0
    vertex 59.741796300347175 128.64274051574085 39.0
    vertex 59.74179630034717 90.89274051574085 3.0
  endloop
endfacet
facet normal -1.0 0.0 0.0
  outer loop
    vertex 59.74179630034717 90.89274051574085 3.0
    vertex 59.74179630034717 43.892740515740854 -15.0
    vertex 59.74179630034717 43.892740515740854 3.0
  endloop
endfacet
facet normal -1.0 0.0 0.0
  outer loop
    vertex 59.74179630034717 43.892740515740854 -15.0
    vertex 59.74179630034717 90.89274051574085 3.0
    vertex 59.741796300347175 128.64274051574085 -15.0
  endloop
endfacet
facet normal -1.0 0.0 0.0
  outer loop
    vertex 59.741796300347175 128.64274051574085 -15.0
    vertex 59.74179630034717 90.89274051574085 3.0
    vertex 59.741796300347175 128.64274051574085 39.0
  endloop
endfacet
facet normal 0.0 -1.0 0.0
  outer loop
    vertex 109.74179630034716 43.892740515740854 3.0
    vertex 59.74179630034717 43.892740515740854 -15.0
    vertex 109.74179630034716 43.892740515740854 -15.0
  endloop
endfacet
facet normal 0.0 -1.0 0.0
  outer loop
    vertex 59.74179630034717 43.892740515740854 -15.0
    vertex 109.74179630034716 43.892740515740854 3.0
    vertex 59.74179630034717 43.892740515740854 3.0
  endloop
endfacet
facet normal 3.524958103184872e-18 -3.749955428920076e-18 1.0
  outer loop
    vertex 109.74179630034716 43.892740515740854 3.0
    vertex 59.74179630034717 90.89274051574085 3.0
    vertex 59.74179630034717 43.892740515740854 3.0
  endloop
endfacet
facet normal 3.524958103184872e-18 -3.749955428920076e-18 1.0
  outer loop
    vertex 59.74179630034717 90.89274051574085 3.0
    vertex 109.74179630034716 43.892740515740854 3.0
    vertex 109.74179630034716 90.89274051574085 3.0
  endloop
endfacet
facet normal 0.0 -1.0 0.0
  outer loop
    vertex 109.74179630034716 90.89274051574085 34.0
    vertex 59.74179630034717 90.89274051574085 3.0
    vertex 109.74179630034716 90.89274051574085 3.0
  endloop
endfacet
facet normal 0.0 -1.0 0.0
  outer loop
    vertex 59.74179630034717 90.89274051574085 3.0
    vertex 109.74179630034716 90.89274051574085 34.0
    vertex 59.74179630034717 90.89274051574085 34.0
  endloop
endfacet
facet normal 0.0 0.0 -1.0
  outer loop
    vertex 109.74179630034716 90.89274051574085 34.0
    vertex 59.74179630034717 43.892740515740854 34.0
    vertex 59.74179630034717 90.89274051574085 34.0
  endloop
endfacet
facet normal 0.0 0.0 -1.0
  outer loop
    vertex 59.74179630034717 43.892740515740854 34.0
    vertex 109.74179630034716 90.89274051574085 34.0
    vertex 109.74179630034716 43.892740515740854 34.0
  endloop
endfacet
facet normal -1.4070127271993007e-16 1.0 1.47845271256208e-32
  outer loop
    vertex 59.741796300347175 128.64274051574085 39.0
    vertex 109.74179630034715 128.64274051574085 -15.0
    vertex 59.741796300347175 128.64274051574085 -15.0
  endloop
endfacet
facet normal -1.4070127271993007e-16 1.0 1.47845271256208e-32
  outer loop
    vertex 109.74179630034715 128.64274051574085 -15.0
    vertex 59.741796300347175 128.64274051574085 39.0
    vertex 109.74179630034715 128.64274051574085 39.0
  endloop
endfacet
facet normal -9.15646099582447e-18 1.0633940719374336e-17 -1.0
  outer loop
    vertex 59.741796300347175 128.64274051574085 -15.0
    vertex 109.74179630034716 43.892740515740854 -15.0
    vertex 59.74179630034717 43.892740515740854 -15.0
  endloop
endfacet
facet normal -9.15646099582447e-18 1.0633940719374336e-17 -1.0
  outer loop
    vertex 109.74179630034716 43.892740515740854 -15.0
    vertex 59.741796300347175 128.64274051574085 -15.0
    vertex 109.74179630034715 128.64274051574085 -15.0
  endloop
endfacet
facet normal -0.0 -0.0 1.0
  outer loop
    vertex 59.74179630034717 43.892740515740854 39.0
    vertex 72.04179630034717 96.89274051574085 39.0
    vertex 59.741796300347175 128.64274051574085 39.0
  endloop
endfacet
facet normal -0.0 -0.0 1.0
  outer loop
    vertex 72.04179630034717 96.89274051574085 39.0
    vertex 59.74179630034717 43.892740515740854 39.0
    vertex 109.74179630034716 43.892740515740854 39.0
  endloop
endfacet
facet normal -0.0 -0.0 1.0
  outer loop
    vertex 72.04179630034717 96.89274051574085 39.0
    vertex 109.74179630034716 43.892740515740854 39.0
    vertex 97.44179630034716 96.89274051574085 39.0
  endloop
endfacet
facet normal -0.0 -0.0 1.0
  outer loop
    vertex 97.44179630034716 96.89274051574085 39.0
    vertex 109.74179630034716 43.892740515740854 39.0
    vertex 97.44179630034716 122.29274051574083 39.0
  endloop
endfacet
facet normal -0.0 -0.0 1.0
  outer loop
    vertex 97.44179630034716 122.29274051574083 39.0
    vertex 109.74179630034716 43.892740515740854 39.0
    vertex 109.74179630034715 128.64274051574085 39.0
  endloop
endfacet
facet normal -0.0 -0.0 1.0
  outer loop
    vertex 59.741796300347175 128.64274051574085 39.0
    vertex 72.04179630034717 122.29274051574083 39.0
    vertex 109.74179630034715 128.64274051574085 39.0
  endloop
endfacet
facet normal -0.0 -0.0 1.0
  outer loop
    vertex 72.04179630034717 122.29274051574083 39.0
    vertex 59.741796300347175 128.64274051574085 39.0
    vertex 72.04179630034717 96.89274051574085 39.0
  endloop
endfacet
facet normal -0.0 -0.0 1.0
  outer loop
    vertex 109.74179630034715 128.64274051574085 39.0
    vertex 72.04179630034717 122.29274051574083 39.0
    vertex 97.44179630034716 122.29274051574083 39.0
  endloop
endfacet
facet normal -0.0 -0.0 1.0
  outer loop
    vertex 97.44179630034716 96.89274051574085 3.000000000000034
    vertex 72.04179630034717 122.29274051574083 3.000000000000034
    vertex 72.04179630034717 96.89274051574085 3.000000000000034
  endloop
endfacet
facet normal -0.0 -0.0 1.0
  outer loop
    vertex 72.04179630034717 122.29274051574083 3.000000000000034
    vertex 97.44179630034716 96.89274051574085 3.000000000000034
    vertex 97.44179630034716 122.29274051574083 3.000000000000034
  endloop
endfacet
facet normal -1.0 0.0 -0.0
  outer loop
    vertex 97.44179630034716 122.29274051574083 39.0
    vertex 97.44179630034716 96.89274051574085 3.000000000000034
    vertex 97.44179630034716 96.89274051574085 39.0
  endloop
endfacet
facet normal -1.0 0.0 -0.0
  outer loop
    vertex 97.44179630034716 96.89274051574085 3.000000000000034
    vertex 97.44179630034716 122.29274051574083 39.0
    vertex 97.44179630034716 122.29274051574083 3.000000000000034
  endloop
endfacet
facet normal 0.0 -1.0 0.0
  outer loop
    vertex 97.44179630034716 122.29274051574083 39.0
    vertex 72.04179630034717 122.29274051574083 3.000000000000034
    vertex 97.44179630034716 122.29274051574083 3.000000000000034
  endloop
endfacet
facet normal 0.0 -1.0 0.0
  outer loop
    vertex 72.04179630034717 122.29274051574083 3.000000000000034
    vertex 97.44179630034716 122.29274051574083 39.0
    vertex 72.04179630034717 122.29274051574083 37.0
  endloop
endfacet
facet normal 0.0 -1.0 0.0
  outer loop
    vertex 72.04179630034717 122.29274051574083 37.0
    vertex 97.44179630034716 122.29274051574083 39.0
    vertex 72.04179630034717 122.29274051574083 39.0
  endloop
endfacet
facet normal 1.0 -0.0 -0.0
  outer loop
    vertex 72.04179630034717 122.29274051574083 3.000000000000034
    vertex 72.04179630034717 96.89274051574085 39.0
    vertex 72.04179630034717 96.89274051574085 3.000000000000034
  endloop
endfacet
facet normal 1.0 -0.0 -0.0
  outer loop
    vertex 72.04179630034717 96.89274051574085 39.0
    vertex 72.04179630034717 122.29274051574083 3.000000000000034
    vertex 72.04179630034717 122.29274051574083 39.0
  endloop
endfacet
facet normal 1.0 -0.0 -0.0
  outer loop
    vertex 72.04179630034717 122.29274051574083 39.0
    vertex 72.04179630034717 122.29274051574083 3.000000000000034
    vertex 72.04179630034717 122.29274051574083 37.0
  endloop
endfacet
facet normal -0.0 1.0 -0.0
  outer loop
    vertex 72.04179630034717 96.89274051574085 39.0
    vertex 97.44179630034716 96.89274051574085 3.000000000000034
    vertex 72.04179630034717 96.89274051574085 3.000000000000034
  endloop
endfacet
facet normal -0.0 1.0 -0.0
  outer loop
    vertex 97.44179630034716 96.89274051574085 3.000000000000034
    vertex 72.04179630034717 96.89274051574085 39.0
    vertex 97.44179630034716 96.89274051574085 39.0
  endloop
endfacet
endsolid C-Clamp
