solid C-Clamp
facet normal 1.0 2.6619152637620277e-16 -0.0
  outer loop
    vertex 163.21312018697208 -0.26674967972707025 -2.255973186038318e-14
    vertex 163.2131201869721 -85.01674967972706 4.999999999999977
    vertex 163.2131201869721 -85.01674967972706 -2.255973186038318e-14
  endloop
endfacet
facet normal 1.0 2.6619152637620277e-16 -0.0
  outer loop
    vertex 163.2131201869721 -85.01674967972706 4.999999999999977
    vertex 163.21312018697208 -0.26674967972707025 -2.255973186038318e-14
    vertex 163.21312018697208 -0.26674967972707025 4.999999999999977
  endloop
endfacet
facet normal -1.0 0.0 0.0
  outer loop
    vertex 150.91312018697212 -6.616749679727093 4.999999999999977
    vertex 150.91312018697212 -32.01674967972707 -2.255973186038318e-14
    vertex 150.91312018697212 -32.01674967972707 4.999999999999977
  endloop
endfacet
facet normal -1.0 0.0 0.0
  outer loop
    vertex 150.91312018697212 -32.01674967972707 -2.255973186038318e-14
    vertex 150.91312018697212 -6.616749679727093 4.999999999999977
    vertex 150.91312018697212 -6.616749679727093 -2.255973186038318e-14
  endloop
endfacet
facet normal -1.0 0.0 0.0
  outer loop
    vertex 113.2131201869721 -0.26674967972707025 4.999999999999977
    vertex 113.2131201869721 -85.01674967972706 -2.255973186038318e-14
    vertex 113.2131201869721 -85.01674967972706 4.999999999999977
  endloop
endfacet
facet normal -1.0 0.0 0.0
  outer loop
    vertex 113.2131201869721 -85.01674967972706 -2.255973186038318e-14
    vertex 113.2131201869721 -0.26674967972707025 4.999999999999977
    vertex 113.2131201869721 -0.26674967972707025 -2.255973186038318e-14
  endloop
endfacet
facet normal 0.0 -1.0 0.0
  outer loop
    vertex 150.91312018697212 -6.616749679727093 4.999999999999977
    vertex 125.51312018697212 -6.616749679727093 -2.255973186038318e-14
    vertex 150.91312018697212 -6.616749679727093 -2.255973186038318e-14
  endloop
endfacet
facet normal 0.0 -1.0 0.0
  outer loop
    vertex 125.51312018697212 -6.616749679727093 -2.255973186038318e-14
    vertex 150.91312018697212 -6.616749679727093 4.999999999999977
    vertex 125.51312018697212 -6.616749679727093 4.999999999999977
  endloop
endfacet
facet normal 0.0 -1.0 0.0
  outer loop
    vertex 163.2131201869721 -85.01674967972706 4.999999999999977
    vertex 113.2131201869721 -85.01674967972706 -2.255973186038318e-14
    vertex 163.2131201869721 -85.01674967972706 -2.255973186038318e-14
  endloop
endfacet
facet normal 0.0 -1.0 0.0
  outer loop
    vertex 113.2131201869721 -85.01674967972706 -2.255973186038318e-14
    vertex 163.2131201869721 -85.01674967972706 4.999999999999977
    vertex 113.2131201869721 -85.01674967972706 4.999999999999977
  endloop
endfacet
facet normal 1.0 0.0 0.0
  outer loop
    vertex 125.51312018697212 -6.616749679727093 -2.255973186038318e-14
    vertex 125.51312018697212 -32.01674967972707 4.999999999999977
    vertex 125.51312018697212 -32.01674967972707 -2.255973186038318e-14
  endloop
endfacet
facet normal 1.0 0.0 0.0
  outer loop
    vertex 125.51312018697212 -32.01674967972707 4.999999999999977
    vertex 125.51312018697212 -6.616749679727093 -2.255973186038318e-14
    vertex 125.51312018697212 -6.616749679727093 4.999999999999977
  endloop
endfacet
facet normal -0.0 -0.0 -1.0
  outer loop
    vertex 113.2131201869721 -0.26674967972707025 -2.255973186038318e-14
    vertex 125.51312018697212 -6.616749679727093 -2.255973186038318e-14
    vertex 113.2131201869721 -85.01674967972706 -2.255973186038318e-14
  endloop
endfacet
facet normal -0.0 -0.0 -1.0
  outer loop
    vertex 125.51312018697212 -6.616749679727093 -2.255973186038318e-14
    vertex 113.2131201869721 -0.26674967972707025 -2.255973186038318e-14
    vertex 163.21312018697208 -0.26674967972707025 -2.255973186038318e-14
  endloop
endfacet
facet normal -0.0 -0.0 -1.0
  outer loop
    vertex 125.51312018697212 -6.616749679727093 -2.255973186038318e-14
    vertex 163.21312018697208 -0.26674967972707025 -2.255973186038318e-14
    vertex 150.91312018697212 -6.616749679727093 -2.255973186038318e-14
  endloop
endfacet
facet normal -0.0 -0.0 -1.0
  outer loop
    vertex 150.91312018697212 -6.616749679727093 -2.255973186038318e-14
    vertex 163.21312018697208 -0.26674967972707025 -2.255973186038318e-14
    vertex 150.91312018697212 -32.01674967972707 -2.255973186038318e-14
  endloop
endfacet
facet normal -0.0 -0.0 -1.0
  outer loop
    vertex 113.2131201869721 -85.01674967972706 -2.255973186038318e-14
    vertex 125.51312018697212 -32.01674967972707 -2.255973186038318e-14
    vertex 163.2131201869721 -85.01674967972706 -2.255973186038318e-14
  endloop
endfacet
facet normal -0.0 -0.0 -1.0
  outer loop
    vertex 125.51312018697212 -32.01674967972707 -2.255973186038318e-14
    vertex 113.2131201869721 -85.01674967972706 -2.255973186038318e-14
    vertex 125.51312018697212 -6.616749679727093 -2.255973186038318e-14
  endloop
endfacet
facet normal -0.0 -0.0 -1.0
  outer loop
    vertex 163.2131201869721 -85.01674967972706 -2.255973186038318e-14
    vertex 125.51312018697212 -32.01674967972707 -2.255973186038318e-14
    vertex 150.91312018697212 -32.01674967972707 -2.255973186038318e-14
  endloop
endfacet
facet normal -0.0 -0.0 -1.0
  outer loop
    vertex 163.2131201869721 -85.01674967972706 -2.255973186038318e-14
    vertex 150.91312018697212 -32.01674967972707 -2.255973186038318e-14
    vertex 163.21312018697208 -0.26674967972707025 -2.255973186038318e-14
  endloop
endfacet
facet normal 0.0 0.0 1.0
  outer loop
    vertex 113.2131201869721 -85.01674967972706 4.999999999999977
    vertex 125.51312018697212 -32.01674967972707 4.999999999999977
    vertex 113.2131201869721 -0.26674967972707025 4.999999999999977
  endloop
endfacet
facet normal 0.0 0.0 1.0
  outer loop
    vertex 125.51312018697212 -32.01674967972707 4.999999999999977
    vertex 113.2131201869721 -85.01674967972706 4.999999999999977
    vertex 163.2131201869721 -85.01674967972706 4.999999999999977
  endloop
endfacet
facet normal 0.0 0.0 1.0
  outer loop
    vertex 125.51312018697212 -32.01674967972707 4.999999999999977
    vertex 163.2131201869721 -85.01674967972706 4.999999999999977
    vertex 150.91312018697212 -32.01674967972707 4.999999999999977
  endloop
endfacet
facet normal 0.0 0.0 1.0
  outer loop
    vertex 150.91312018697212 -32.01674967972707 4.999999999999977
    vertex 163.2131201869721 -85.01674967972706 4.999999999999977
    vertex 150.91312018697212 -6.616749679727093 4.999999999999977
  endloop
endfacet
facet normal 0.0 0.0 1.0
  outer loop
    vertex 150.91312018697212 -6.616749679727093 4.999999999999977
    vertex 163.2131201869721 -85.01674967972706 4.999999999999977
    vertex 163.21312018697208 -0.26674967972707025 4.999999999999977
  endloop
endfacet
facet normal 0.0 0.0 1.0
  outer loop
    vertex 113.2131201869721 -0.26674967972707025 4.999999999999977
    vertex 125.51312018697212 -6.616749679727093 4.999999999999977
    vertex 163.21312018697208 -0.26674967972707025 4.999999999999977
  endloop
endfacet
facet normal 0.0 0.0 1.0
  outer loop
    vertex 125.51312018697212 -6.616749679727093 4.999999999999977
    vertex 113.2131201869721 -0.26674967972707025 4.999999999999977
    vertex 125.51312018697212 -32.01674967972707 4.999999999999977
  endloop
endfacet
facet normal 0.0 0.0 1.0
  outer loop
    vertex 163.21312018697208 -0.26674967972707025 4.999999999999977
    vertex 125.51312018697212 -6.616749679727093 4.999999999999977
    vertex 150.91312018697212 -6.616749679727093 4.999999999999977
  endloop
endfacet
facet normal 0.0 1.0 -0.0
  outer loop
    vertex 113.2131201869721 -0.26674967972707025 4.999999999999977
    vertex 163.21312018697208 -0.26674967972707025 -2.255973186038318e-14
    vertex 113.2131201869721 -0.26674967972707025 -2.255973186038318e-14
  endloop
endfacet
facet normal 0.0 1.0 -0.0
  outer loop
    vertex 163.21312018697208 -0.26674967972707025 -2.255973186038318e-14
    vertex 113.2131201869721 -0.26674967972707025 4.999999999999977
    vertex 163.21312018697208 -0.26674967972707025 4.999999999999977
  endloop
endfacet
facet normal 0.0 1.0 -0.0
  outer loop
    vertex 125.51312018697212 -32.01674967972707 4.999999999999977
    vertex 150.91312018697212 -32.01674967972707 -2.255973186038318e-14
    vertex 125.51312018697212 -32.01674967972707 -2.255973186038318e-14
  endloop
endfacet
facet normal 0.0 1.0 -0.0
  outer loop
    vertex 150.91312018697212 -32.01674967972707 -2.255973186038318e-14
    vertex 125.51312018697212 -32.01674967972707 4.999999999999977
    vertex 150.91312018697212 -32.01674967972707 4.999999999999977
  endloop
endfacet
endsolid C-Clamp
